C:\GBW_MyPrograms\PredSim\Subjects\Ines_test\Smurf\Smurf_v1.mot
version=1
nRows=15
nColumns=31
inDegrees=yes
endheader
                time	         pelvis_tilt	           pelvis_tx	           pelvis_ty	       hip_flexion_r	        knee_angle_r	       ankle_angle_r	       hip_flexion_l	        knee_angle_l	       ankle_angle_l	    lumbar_extension	          arm_flex_r	          arm_flex_l	hamstrings_r/activation	bifemsh_r/activation	glut_max_r/activation	iliopsoas_r/activation	rect_fem_r/activation	  vasti_r/activation	gastroc_r/activation	 soleus_r/activation	tib_ant_r/activation	hamstrings_l/activation	bifemsh_l/activation	glut_max_l/activation	iliopsoas_l/activation	rect_fem_l/activation	  vasti_l/activation	gastroc_l/activation	 soleus_l/activation	tib_ant_l/activation	
          0.62923789	         -0.35132740	          0.12432362	          0.11093102	         41.63116715	        -47.38890310	         -6.94427083	          3.47840799	        -36.73195635	        -15.31611097	         -6.05441489	         -4.81378918	         -4.81378909	          0.01037931	          0.01209853	          0.01289606	          0.13028535	          0.10016814	          0.05035071	          0.01223891	          0.01328007	          0.07467026	          0.02591690	          0.05026931	          0.04739141	          0.01175216	          0.01257424	          0.01281191	          0.04574078	          0.02282496	          0.05008520	
          0.63553027	         -0.33822659	          0.12592481	          0.11044701	         41.83757717	        -46.66997763	         -6.90953993	          2.82522124	        -37.52347225	        -15.51522786	         -5.82490433	         -4.92086507	         -4.92086496	          0.01088742	          0.01170045	          0.01267335	          0.13202833	          0.09151645	          0.04953752	          0.01208094	          0.01344515	          0.07450456	          0.02726470	          0.05807205	          0.05107244	          0.01192185	          0.01191272	          0.01185501	          0.04874731	          0.02339605	          0.04633964	
          0.64182265	         -0.31984645	          0.12760358	          0.10989181	         41.96927843	        -46.19305028	         -6.88556261	          2.20061987	        -38.48726737	        -15.79655626	         -5.53870614	         -5.03235367	         -5.03235355	          0.01074024	          0.01147536	          0.01283147	          0.12888828	          0.08316403	          0.04649086	          0.01174085	          0.01361565	          0.07375634	          0.02783767	          0.07134032	          0.05567383	          0.01156783	          0.01131006	          0.01094388	          0.05119515	          0.02491497	          0.04263057	
          0.64811503	         -0.29587868	          0.12935668	          0.10925913	         42.01803162	        -46.01701185	         -6.87464136	          1.60536379	        -39.63788675	        -16.17865009	         -5.19795506	         -5.14401727	         -5.14401714	          0.01017069	          0.01119591	          0.01230108	          0.12423626	          0.07538311	          0.04304434	          0.01123522	          0.01400629	          0.07333829	          0.02841217	          0.09351357	          0.06361299	          0.01101982	          0.01075272	          0.01011656	          0.06314161	          0.02641865	          0.03912203	
          0.65440740	         -0.26708411	          0.13117526	          0.10854308	         41.97871582	        -46.19610435	         -6.88532760	          1.03937608	        -40.98495719	        -16.67648703	         -4.80896528	         -5.24891920	         -5.24891906	          0.01002978	          0.01091913	          0.01252794	          0.11250947	          0.06824910	          0.03897488	          0.01522295	          0.01365814	          0.07378775	          0.03683637	          0.10380116	          0.06128033	          0.01007292	          0.01041356	          0.01017713	          0.07531817	          0.02905181	          0.03638463	
          0.66069978	         -0.23656524	          0.13304415	          0.10774533	         41.81808913	        -46.82002832	         -6.93336941	          0.53119537	        -42.49641737	        -17.26648586	         -4.38158865	         -5.33789833	         -5.33789818	          0.02009204	          0.03067815	          0.02386005	          0.10185609	          0.06179072	          0.03529568	          0.02660184	          0.01378414	          0.07092595	          0.03659847	          0.09433576	          0.06150980	          0.02499684	          0.01031045	          0.01162157	          0.07056965	          0.03034953	          0.03446302	
          0.66699216	         -0.20516636	          0.13494000	          0.10688215	         41.55923988	        -47.83529018	         -7.02922331	          0.13105034	        -44.05066075	        -17.88377279	         -3.93637724	         -5.39871730	         -5.39871713	          0.02259015	          0.06644526	          0.04901637	          0.09226696	          0.05597338	          0.03196812	          0.05112865	          0.01335857	          0.07643892	          0.03320081	          0.09422813	          0.05571630	          0.02755910	          0.02874360	          0.01083361	          0.07015418	          0.02968200	          0.03438074	
          0.67328454	         -0.17339488	          0.13684212	          0.10598893	         41.22700756	        -49.08649783	         -7.11582486	         -0.14439093	        -45.54573413	        -18.46008979	         -3.49087909	         -5.42804445	         -5.42804427	          0.02825917	          0.09940838	          0.07775134	          0.08360376	          0.05070798	          0.02895458	          0.05240399	          0.01400409	          0.07543736	          0.03010425	          0.08575803	          0.05047691	          0.03591787	          0.05540113	          0.01063486	          0.06584456	          0.02766740	          0.03714715	
          0.67957692	         -0.14243241	          0.13872712	          0.10512618	         40.83416182	        -50.44476013	         -7.16110816	         -0.26313037	        -46.92520640	        -18.94261739	         -3.06367599	         -5.42171742	         -5.42171723	          0.04447404	          0.09682896	          0.09290282	          0.07575305	          0.04595065	          0.02622546	          0.04958082	          0.01581855	          0.07332801	          0.02729685	          0.07838069	          0.04571493	          0.04476796	          0.09160384	          0.01072298	          0.06242723	          0.02590887	          0.04321190	
          0.68586930	         -0.11375159	          0.14056569	          0.10437581	         40.42955724	        -51.84146222	         -7.16443097	         -0.21062116	        -48.16767289	        -19.31421005	         -2.67769470	         -5.37350458	         -5.37350439	          0.04142982	          0.10700484	          0.11489797	          0.06868880	          0.04164620	          0.02375764	          0.05470573	          0.01642083	          0.07140510	          0.02474799	          0.07209548	          0.04139139	          0.05393317	          0.11067324	          0.01144872	          0.06011391	          0.02508757	          0.05069993	
          0.69216168	         -0.09090629	          0.14233329	          0.10381852	         40.01146886	        -53.17040931	         -7.14470188	          0.00580632	        -49.29595916	        -19.55518754	         -2.34758388	         -5.28688299	         -5.28688279	          0.03850565	          0.10211550	          0.12268140	          0.06228329	          0.03775342	          0.02153402	          0.05407386	          0.01594238	          0.06847633	          0.02245049	          0.06731207	          0.03748398	          0.05829760	          0.11519844	          0.01242744	          0.05753233	          0.02356737	          0.05660373	
          0.69845406	         -0.07388927	          0.14401928	          0.10350077	         39.55572729	        -54.35594820	         -7.11605370	          0.35970693	        -50.29333488	        -19.65711938	         -2.07850068	         -5.17621363	         -5.17621343	          0.03490378	          0.09262452	          0.11123081	          0.05644967	          0.03431623	          0.02299329	          0.04971462	          0.01601156	          0.06832555	          0.02304549	          0.06963545	          0.03561031	          0.05426580	          0.11772445	          0.01249903	          0.05848179	          0.02330071	          0.05876997	
          0.70474644	         -0.06244345	          0.14562439	          0.10342315	         39.04624403	        -55.34184650	         -7.10567712	          0.85986517	        -51.19892262	        -19.66229158	         -1.86619656	         -5.05854303	         -5.05854283	          0.03163816	          0.08407408	          0.10072922	          0.05192805	          0.03434153	          0.02476233	          0.04733932	          0.01574113	          0.06610172	          0.02453790	          0.07034809	          0.03340831	          0.05049438	          0.11110604	          0.01190834	          0.05788181	          0.02252399	          0.05976156	
          0.71103881	         -0.05501890	          0.14715666	          0.10355001	         38.46181128	        -56.08660155	         -7.14728325	          1.49281063	        -52.10104485	        -19.57174653	         -1.70267757	         -4.94701353	         -4.94701333	          0.02869204	          0.07631930	          0.09122180	          0.04868210	          0.03938480	          0.02657024	          0.04546493	          0.01552542	          0.06360357	          0.03132390	          0.06899778	          0.03103574	          0.04737759	          0.10493223	          0.01177092	          0.05680290	          0.02160192	          0.05936888	
          0.71733119	         -0.05145886	          0.14862209	          0.10382882	         37.80357382	        -56.57864297	         -7.25767683	          2.24215939	        -53.06804251	        -19.39818142	         -1.58205502	         -4.84507023	         -4.84507003	          0.02606016	          0.06929124	          0.08264374	          0.04426673	          0.04507447	          0.02779751	          0.04396473	          0.01582974	          0.06151920	          0.03560850	          0.06999245	          0.02863804	          0.04398920	          0.09657163	          0.01156208	          0.05603663	          0.02044406	          0.05856292	
